<?xml version="1.0" encoding="UTF-8" standalone="no"?><svg xmlns="http://www.w3.org/2000/svg" xmlns:xlink="http://www.w3.org/1999/xlink" contentScriptType="application/ecmascript" contentStyleType="text/css" height="639px" preserveAspectRatio="none" style="width:1077px;height:639px;" version="1.1" viewBox="0 0 1077 639" width="1077px" zoomAndPan="magnify"><defs><filter height="300%" id="femy0cnakgu63" width="300%" x="-1" y="-1"><feGaussianBlur result="blurOut" stdDeviation="2.0"/><feColorMatrix in="blurOut" result="blurOut2" type="matrix" values="0 0 0 0 0 0 0 0 0 0 0 0 0 0 0 0 0 0 .4 0"/><feOffset dx="4.0" dy="4.0" in="blurOut2" result="blurOut3"/><feBlend in="SourceGraphic" in2="blurOut3" mode="normal"/></filter></defs><g><line style="stroke: #A80036; stroke-width: 1.0; stroke-dasharray: 5.0,5.0;" x1="31" x2="31" y1="54.5801" y2="583.2241"/><line style="stroke: #A80036; stroke-width: 1.0; stroke-dasharray: 5.0,5.0;" x1="105" x2="105" y1="54.5801" y2="583.2241"/><line style="stroke: #A80036; stroke-width: 1.0; stroke-dasharray: 5.0,5.0;" x1="195" x2="195" y1="54.5801" y2="583.2241"/><line style="stroke: #A80036; stroke-width: 1.0; stroke-dasharray: 5.0,5.0;" x1="278" x2="278" y1="54.5801" y2="583.2241"/><line style="stroke: #A80036; stroke-width: 1.0; stroke-dasharray: 5.0,5.0;" x1="360" x2="360" y1="54.5801" y2="583.2241"/><line style="stroke: #A80036; stroke-width: 1.0; stroke-dasharray: 5.0,5.0;" x1="447" x2="447" y1="54.5801" y2="583.2241"/><line style="stroke: #A80036; stroke-width: 1.0; stroke-dasharray: 5.0,5.0;" x1="531" x2="531" y1="54.5801" y2="583.2241"/><line style="stroke: #A80036; stroke-width: 1.0; stroke-dasharray: 5.0,5.0;" x1="623" x2="623" y1="54.5801" y2="583.2241"/><line style="stroke: #A80036; stroke-width: 1.0; stroke-dasharray: 5.0,5.0;" x1="723" x2="723" y1="54.5801" y2="583.2241"/><line style="stroke: #A80036; stroke-width: 1.0; stroke-dasharray: 5.0,5.0;" x1="815" x2="815" y1="54.5801" y2="583.2241"/><rect fill="#FEFECE" filter="url(#femy0cnakgu63)" height="30.29" style="stroke: #A80036; stroke-width: 1.5;" width="43" x="8" y="19.29"/><text fill="#000000" font-family="sans-serif" font-size="14" lengthAdjust="spacingAndGlyphs" textLength="29" x="15" y="39.5928">New</text><rect fill="#FEFECE" filter="url(#femy0cnakgu63)" height="30.29" style="stroke: #A80036; stroke-width: 1.5;" width="43" x="8" y="582.2241"/><text fill="#000000" font-family="sans-serif" font-size="14" lengthAdjust="spacingAndGlyphs" textLength="29" x="15" y="602.5269">New</text><rect fill="#FEFECE" filter="url(#femy0cnakgu63)" height="30.29" style="stroke: #A80036; stroke-width: 1.5;" width="77" x="65" y="19.29"/><text fill="#000000" font-family="sans-serif" font-size="14" lengthAdjust="spacingAndGlyphs" textLength="63" x="72" y="39.5928">Installing</text><rect fill="#FEFECE" filter="url(#femy0cnakgu63)" height="30.29" style="stroke: #A80036; stroke-width: 1.5;" width="77" x="65" y="582.2241"/><text fill="#000000" font-family="sans-serif" font-size="14" lengthAdjust="spacingAndGlyphs" textLength="63" x="72" y="602.5269">Installing</text><rect fill="#FEFECE" filter="url(#femy0cnakgu63)" height="46.5801" style="stroke: #A80036; stroke-width: 1.5;" width="74" x="156" y="3"/><text fill="#000000" font-family="sans-serif" font-size="14" lengthAdjust="spacingAndGlyphs" textLength="60" x="163" y="23.3027">Awaiting</text><text fill="#000000" font-family="sans-serif" font-size="14" lengthAdjust="spacingAndGlyphs" textLength="50" x="168" y="39.5928">Startup</text><rect fill="#FEFECE" filter="url(#femy0cnakgu63)" height="46.5801" style="stroke: #A80036; stroke-width: 1.5;" width="74" x="156" y="582.2241"/><text fill="#000000" font-family="sans-serif" font-size="14" lengthAdjust="spacingAndGlyphs" textLength="60" x="163" y="602.5269">Awaiting</text><text fill="#000000" font-family="sans-serif" font-size="14" lengthAdjust="spacingAndGlyphs" textLength="50" x="168" y="618.8169">Startup</text><rect fill="#FEFECE" filter="url(#femy0cnakgu63)" height="30.29" style="stroke: #A80036; stroke-width: 1.5;" width="64" x="244" y="19.29"/><text fill="#000000" font-family="sans-serif" font-size="14" lengthAdjust="spacingAndGlyphs" textLength="50" x="251" y="39.5928">Startup</text><rect fill="#FEFECE" filter="url(#femy0cnakgu63)" height="30.29" style="stroke: #A80036; stroke-width: 1.5;" width="64" x="244" y="582.2241"/><text fill="#000000" font-family="sans-serif" font-size="14" lengthAdjust="spacingAndGlyphs" textLength="50" x="251" y="602.5269">Startup</text><rect fill="#FEFECE" filter="url(#femy0cnakgu63)" height="30.29" style="stroke: #A80036; stroke-width: 1.5;" width="72" x="322" y="19.29"/><text fill="#000000" font-family="sans-serif" font-size="14" lengthAdjust="spacingAndGlyphs" textLength="58" x="329" y="39.5928">Running</text><rect fill="#FEFECE" filter="url(#femy0cnakgu63)" height="30.29" style="stroke: #A80036; stroke-width: 1.5;" width="72" x="322" y="582.2241"/><text fill="#000000" font-family="sans-serif" font-size="14" lengthAdjust="spacingAndGlyphs" textLength="58" x="329" y="602.5269">Running</text><rect fill="#FEFECE" filter="url(#femy0cnakgu63)" height="30.29" style="stroke: #A80036; stroke-width: 1.5;" width="74" x="408" y="19.29"/><text fill="#000000" font-family="sans-serif" font-size="14" lengthAdjust="spacingAndGlyphs" textLength="60" x="415" y="39.5928">Unstable</text><rect fill="#FEFECE" filter="url(#femy0cnakgu63)" height="30.29" style="stroke: #A80036; stroke-width: 1.5;" width="74" x="408" y="582.2241"/><text fill="#000000" font-family="sans-serif" font-size="14" lengthAdjust="spacingAndGlyphs" textLength="60" x="415" y="602.5269">Unstable</text><rect fill="#FEFECE" filter="url(#femy0cnakgu63)" height="30.29" style="stroke: #A80036; stroke-width: 1.5;" width="66" x="496" y="19.29"/><text fill="#000000" font-family="sans-serif" font-size="14" lengthAdjust="spacingAndGlyphs" textLength="52" x="503" y="39.5928">Errored</text><rect fill="#FEFECE" filter="url(#femy0cnakgu63)" height="30.29" style="stroke: #A80036; stroke-width: 1.5;" width="66" x="496" y="582.2241"/><text fill="#000000" font-family="sans-serif" font-size="14" lengthAdjust="spacingAndGlyphs" textLength="52" x="503" y="602.5269">Errored</text><rect fill="#FEFECE" filter="url(#femy0cnakgu63)" height="30.29" style="stroke: #A80036; stroke-width: 1.5;" width="90" x="576" y="19.29"/><text fill="#000000" font-family="sans-serif" font-size="14" lengthAdjust="spacingAndGlyphs" textLength="76" x="583" y="39.5928">Recovering</text><rect fill="#FEFECE" filter="url(#femy0cnakgu63)" height="30.29" style="stroke: #A80036; stroke-width: 1.5;" width="90" x="576" y="582.2241"/><text fill="#000000" font-family="sans-serif" font-size="14" lengthAdjust="spacingAndGlyphs" textLength="76" x="583" y="602.5269">Recovering</text><rect fill="#FEFECE" filter="url(#femy0cnakgu63)" height="30.29" style="stroke: #A80036; stroke-width: 1.5;" width="83" x="680" y="19.29"/><text fill="#000000" font-family="sans-serif" font-size="14" lengthAdjust="spacingAndGlyphs" textLength="69" x="687" y="39.5928">Shutdown</text><rect fill="#FEFECE" filter="url(#femy0cnakgu63)" height="30.29" style="stroke: #A80036; stroke-width: 1.5;" width="83" x="680" y="582.2241"/><text fill="#000000" font-family="sans-serif" font-size="14" lengthAdjust="spacingAndGlyphs" textLength="69" x="687" y="602.5269">Shutdown</text><rect fill="#FEFECE" filter="url(#femy0cnakgu63)" height="30.29" style="stroke: #A80036; stroke-width: 1.5;" width="72" x="777" y="19.29"/><text fill="#000000" font-family="sans-serif" font-size="14" lengthAdjust="spacingAndGlyphs" textLength="58" x="784" y="39.5928">Finished</text><rect fill="#FEFECE" filter="url(#femy0cnakgu63)" height="30.29" style="stroke: #A80036; stroke-width: 1.5;" width="72" x="777" y="582.2241"/><text fill="#000000" font-family="sans-serif" font-size="14" lengthAdjust="spacingAndGlyphs" textLength="58" x="784" y="602.5269">Finished</text><polygon fill="#A80036" points="93.5,79.1433,103.5,83.1433,93.5,87.1433,97.5,83.1433" style="stroke: #A80036; stroke-width: 1.0;"/><line style="stroke: #A80036; stroke-width: 1.0;" x1="31.5" x2="99.5" y1="83.1433" y2="83.1433"/><path d="M110,69.5801 L110,94.5801 L254,94.5801 L254,79.5801 L244,69.5801 L110,69.5801 " fill="#FBFB77" filter="url(#femy0cnakgu63)" style="stroke: #A80036; stroke-width: 1.0;"/><path d="M244,69.5801 L244,79.5801 L254,79.5801 L244,69.5801 " fill="#FBFB77" style="stroke: #A80036; stroke-width: 1.0;"/><text fill="#000000" font-family="sans-serif" font-size="13" lengthAdjust="spacingAndGlyphs" textLength="123" x="116" y="86.9326">creation &amp; injection</text><polygon fill="#A80036" points="183,118.2698,193,122.2698,183,126.2698,187,122.2698" style="stroke: #A80036; stroke-width: 1.0;"/><line style="stroke: #A80036; stroke-width: 1.0;" x1="105.5" x2="189" y1="122.2698" y2="122.2698"/><path d="M200,108.7065 L200,133.7065 L573,133.7065 L573,118.7065 L563,108.7065 L200,108.7065 " fill="#FBFB77" filter="url(#femy0cnakgu63)" style="stroke: #A80036; stroke-width: 1.0;"/><path d="M563,108.7065 L563,118.7065 L573,118.7065 L563,108.7065 " fill="#FBFB77" style="stroke: #A80036; stroke-width: 1.0;"/><text fill="#000000" font-family="sans-serif" font-size="13" lengthAdjust="spacingAndGlyphs" textLength="352" x="206" y="126.0591">installing external assets (code, ML models, whatever...)</text><polygon fill="#A80036" points="266,157.3962,276,161.3962,266,165.3962,270,161.3962" style="stroke: #A80036; stroke-width: 1.0;"/><line style="stroke: #A80036; stroke-width: 1.0;" x1="195" x2="272" y1="161.3962" y2="161.3962"/><path d="M283,147.833 L283,172.833 L465,172.833 L465,157.833 L455,147.833 L283,147.833 " fill="#FBFB77" filter="url(#femy0cnakgu63)" style="stroke: #A80036; stroke-width: 1.0;"/><path d="M455,147.833 L455,157.833 L465,157.833 L455,147.833 " fill="#FBFB77" style="stroke: #A80036; stroke-width: 1.0;"/><text fill="#000000" font-family="sans-serif" font-size="13" lengthAdjust="spacingAndGlyphs" textLength="161" x="289" y="165.1855">all dependencies Running</text><polygon fill="#A80036" points="348,196.5227,358,200.5227,348,204.5227,352,200.5227" style="stroke: #A80036; stroke-width: 1.0;"/><line style="stroke: #A80036; stroke-width: 1.0;" x1="278" x2="354" y1="200.5227" y2="200.5227"/><path d="M365,186.9595 L365,211.9595 L852,211.9595 L852,196.9595 L842,186.9595 L365,186.9595 " fill="#FBFB77" filter="url(#femy0cnakgu63)" style="stroke: #A80036; stroke-width: 1.0;"/><path d="M842,186.9595 L842,196.9595 L852,196.9595 L842,186.9595 " fill="#FBFB77" style="stroke: #A80036; stroke-width: 1.0;"/><text fill="#000000" font-family="sans-serif" font-size="13" lengthAdjust="spacingAndGlyphs" textLength="466" x="371" y="204.312">do work that must be done before the service is considered to be Running</text><polygon fill="#A80036" points="435,235.6492,445,239.6492,435,243.6492,439,239.6492" style="stroke: #A80036; stroke-width: 1.0;"/><line style="stroke: #A80036; stroke-width: 1.0;" x1="360" x2="441" y1="239.6492" y2="239.6492"/><path d="M452,226.0859 L452,251.0859 L672,251.0859 L672,236.0859 L662,226.0859 L452,226.0859 " fill="#FBFB77" filter="url(#femy0cnakgu63)" style="stroke: #A80036; stroke-width: 1.0;"/><path d="M662,226.0859 L662,236.0859 L672,236.0859 L662,226.0859 " fill="#FBFB77" style="stroke: #A80036; stroke-width: 1.0;"/><text fill="#000000" font-family="sans-serif" font-size="13" lengthAdjust="spacingAndGlyphs" textLength="199" x="458" y="243.4385">service detected error internally</text><polygon fill="#A80036" points="371,274.7756,361,278.7756,371,282.7756,367,278.7756" style="stroke: #A80036; stroke-width: 1.0;"/><line style="stroke: #A80036; stroke-width: 1.0;" x1="365" x2="446" y1="278.7756" y2="278.7756"/><path d="M452,265.2124 L452,290.2124 L593,290.2124 L593,275.2124 L583,265.2124 L452,265.2124 " fill="#FBFB77" filter="url(#femy0cnakgu63)" style="stroke: #A80036; stroke-width: 1.0;"/><path d="M583,265.2124 L583,275.2124 L593,275.2124 L583,265.2124 " fill="#FBFB77" style="stroke: #A80036; stroke-width: 1.0;"/><text fill="#000000" font-family="sans-serif" font-size="13" lengthAdjust="spacingAndGlyphs" textLength="120" x="458" y="282.5649">service self-healed</text><polygon fill="#A80036" points="519,313.9021,529,317.9021,519,321.9021,523,317.9021" style="stroke: #A80036; stroke-width: 1.0;"/><line style="stroke: #A80036; stroke-width: 1.0;" x1="447" x2="525" y1="317.9021" y2="317.9021"/><path d="M536,304.3389 L536,329.3389 L701,329.3389 L701,314.3389 L691,304.3389 L536,304.3389 " fill="#FBFB77" filter="url(#femy0cnakgu63)" style="stroke: #A80036; stroke-width: 1.0;"/><path d="M691,304.3389 L691,314.3389 L701,314.3389 L691,304.3389 " fill="#FBFB77" style="stroke: #A80036; stroke-width: 1.0;"/><text fill="#000000" font-family="sans-serif" font-size="13" lengthAdjust="spacingAndGlyphs" textLength="144" x="542" y="321.6914">service self-heal failed</text><polygon fill="#A80036" points="519,353.0286,529,357.0286,519,361.0286,523,357.0286" style="stroke: #A80036; stroke-width: 1.0;"/><line style="stroke: #A80036; stroke-width: 1.0;" x1="360" x2="525" y1="357.0286" y2="357.0286"/><path d="M536,343.4653 L536,368.4653 L759,368.4653 L759,353.4653 L749,343.4653 L536,343.4653 " fill="#FBFB77" filter="url(#femy0cnakgu63)" style="stroke: #A80036; stroke-width: 1.0;"/><path d="M749,343.4653 L749,353.4653 L759,353.4653 L749,343.4653 " fill="#FBFB77" style="stroke: #A80036; stroke-width: 1.0;"/><text fill="#000000" font-family="sans-serif" font-size="13" lengthAdjust="spacingAndGlyphs" textLength="202" x="542" y="360.8179">service error detected externally</text><polygon fill="#A80036" points="611,392.155,621,396.155,611,400.155,615,396.155" style="stroke: #A80036; stroke-width: 1.0;"/><line style="stroke: #A80036; stroke-width: 1.0;" x1="531" x2="617" y1="396.155" y2="396.155"/><path d="M628,382.5918 L628,407.5918 L805,407.5918 L805,392.5918 L795,382.5918 L628,382.5918 " fill="#FBFB77" filter="url(#femy0cnakgu63)" style="stroke: #A80036; stroke-width: 1.0;"/><path d="M795,382.5918 L795,392.5918 L805,392.5918 L795,382.5918 " fill="#FBFB77" style="stroke: #A80036; stroke-width: 1.0;"/><text fill="#000000" font-family="sans-serif" font-size="13" lengthAdjust="spacingAndGlyphs" textLength="156" x="634" y="399.9443">external recovery started</text><polygon fill="#A80036" points="371,431.2815,361,435.2815,371,439.2815,367,435.2815" style="stroke: #A80036; stroke-width: 1.0;"/><line style="stroke: #A80036; stroke-width: 1.0;" x1="365" x2="622" y1="435.2815" y2="435.2815"/><path d="M628,421.7183 L628,446.7183 L827,446.7183 L827,431.7183 L817,421.7183 L628,421.7183 " fill="#FBFB77" filter="url(#femy0cnakgu63)" style="stroke: #A80036; stroke-width: 1.0;"/><path d="M817,421.7183 L817,431.7183 L827,431.7183 L817,421.7183 " fill="#FBFB77" style="stroke: #A80036; stroke-width: 1.0;"/><text fill="#000000" font-family="sans-serif" font-size="13" lengthAdjust="spacingAndGlyphs" textLength="178" x="634" y="439.0708">external recovery succeeded</text><polygon fill="#A80036" points="711.5,470.408,721.5,474.408,711.5,478.408,715.5,474.408" style="stroke: #A80036; stroke-width: 1.0;"/><line style="stroke: #A80036; stroke-width: 1.0;" x1="623" x2="717.5" y1="474.408" y2="474.408"/><path d="M728,460.8447 L728,485.8447 L896,485.8447 L896,470.8447 L886,460.8447 L728,460.8447 " fill="#FBFB77" filter="url(#femy0cnakgu63)" style="stroke: #A80036; stroke-width: 1.0;"/><path d="M886,460.8447 L886,470.8447 L896,470.8447 L886,460.8447 " fill="#FBFB77" style="stroke: #A80036; stroke-width: 1.0;"/><text fill="#000000" font-family="sans-serif" font-size="13" lengthAdjust="spacingAndGlyphs" textLength="147" x="734" y="478.1973">external recovery failed</text><polygon fill="#A80036" points="803,509.5344,813,513.5344,803,517.5344,807,513.5344" style="stroke: #A80036; stroke-width: 1.0;"/><line style="stroke: #A80036; stroke-width: 1.0;" x1="360" x2="809" y1="513.5344" y2="513.5344"/><path d="M820,499.9712 L820,524.9712 L1065,524.9712 L1065,509.9712 L1055,499.9712 L820,499.9712 " fill="#FBFB77" filter="url(#femy0cnakgu63)" style="stroke: #A80036; stroke-width: 1.0;"/><path d="M1055,499.9712 L1055,509.9712 L1065,509.9712 L1055,499.9712 " fill="#FBFB77" style="stroke: #A80036; stroke-width: 1.0;"/><text fill="#000000" font-family="sans-serif" font-size="13" lengthAdjust="spacingAndGlyphs" textLength="224" x="826" y="517.3237">service completed its task normally</text><polygon fill="#A80036" points="289,548.6609,279,552.6609,289,556.6609,285,552.6609" style="stroke: #A80036; stroke-width: 1.0;"/><line style="stroke: #A80036; stroke-width: 1.0;" x1="283" x2="814" y1="552.6609" y2="552.6609"/><path d="M820,539.0977 L820,564.0977 L1043,564.0977 L1043,549.0977 L1033,539.0977 L820,539.0977 " fill="#FBFB77" filter="url(#femy0cnakgu63)" style="stroke: #A80036; stroke-width: 1.0;"/><path d="M1033,539.0977 L1033,549.0977 L1043,549.0977 L1033,539.0977 " fill="#FBFB77" style="stroke: #A80036; stroke-width: 1.0;"/><text fill="#000000" font-family="sans-serif" font-size="13" lengthAdjust="spacingAndGlyphs" textLength="202" x="826" y="556.4502">service restarted (eg. by a timer)</text><!--
@startuml
participant NEW
participant INSTALLING
participant AS as "Awaiting\nStartup"
participant Startup
participant RUNNING
participant Unstable
participant ERRORED
participant Recovering
participant Shutdown
participant FINISHED
NEW->INSTALLING
note right: creation & injection
INSTALLING->AS
note right: installing external assets (code, ML models, whatever...)
AS->Startup
note right: all dependencies RUNNING
Startup->RUNNING
note right: do work that must be done before the service is considered to be RUNNING
RUNNING->Unstable
note right: service detected error internally
Unstable->RUNNING
note right: service self-healed
Unstable->ERRORED
note right: service self-heal failed
RUNNING->ERRORED
note right: service error detected externally
ERRORED->Recovering
note right: external recovery started
Recovering->RUNNING
note right: external recovery succeeded
Recovering->Shutdown
note right: external recovery failed
RUNNING->FINISHED
note right: service completed its task normally
FINISHED->Startup
note right: service restarted (eg. by a timer)
@enduml

PlantUML version 1.2018.06(Mon May 21 10:34:53 UTC 2018)
(GPLV2 source distribution)
Java Runtime: OpenJDK Runtime Environment
JVM: OpenJDK 64-Bit Server VM
Java Version: 1.8.0_212-b03
Operating System: Linux
OS Version: 4.9.137-0.1.ac.218.74.329.metal1.x86_64
Default Encoding: UTF-8
Language: en
Country: US
--></g></svg>